<?xml version="1.0" encoding="UTF-8"?><svg id="uuid-e301d1f7-3f78-4473-82d2-1f4373c24e56" xmlns="http://www.w3.org/2000/svg" viewBox="0 0 468 112"><metadata><c2pa:manifest xmlns:c2pa="http://c2pa.org/manifest">AAA0RWp1bWIAAAAeanVtZGMycGEAEQAQgAAAqgA4m3EDYzJwYQAAADQfanVtYgAAAEdqdW1kYzJtYQARABCAAACqADibcQN1cm46dXVpZDo0NWI1NmIzMy0xODQxLTQwODgtYTc3NS1mMGMzYzZmMWU3YTYAAAABtGp1bWIAAAApanVtZGMyYXMAEQAQgAAAqgA4m3EDYzJwYS5hc3NlcnRpb25zAAAAANdqdW1iAAAAJmp1bWRjYm9yABEAEIAAAKoAOJtxA2MycGEuYWN0aW9ucwAAAACpY2JvcqFnYWN0aW9uc4GjZmFjdGlvbmtjMnBhLmVkaXRlZG1zb2Z0d2FyZUFnZW50bUFkb2JlIEZpcmVmbHlxZGlnaXRhbFNvdXJjZVR5cGV4U2h0dHA6Ly9jdi5pcHRjLm9yZy9uZXdzY29kZXMvZGlnaXRhbHNvdXJjZXR5cGUvY29tcG9zaXRlV2l0aFRyYWluZWRBbGdvcml0aG1pY01lZGlhAAAArGp1bWIAAAAoanVtZGNib3IAEQAQgAAAqgA4m3EDYzJwYS5oYXNoLmRhdGEAAAAAfGNib3KlamV4Y2x1c2lvbnOBomVzdGFydBjSZmxlbmd0aBlFtGRuYW1lbmp1bWJmIG1hbmlmZXN0Y2FsZ2ZzaGEyNTZkaGFzaFggf4+xSnZUOopGm1fUXGupv5NvhsONytj+l4Qq1F8GRKpjcGFkSQAAAAAAAAAAAAAAAgxqdW1iAAAAJGp1bWRjMmNsABEAEIAAAKoAOJtxA2MycGEuY2xhaW0AAAAB4GNib3KoaGRjOnRpdGxlb0dlbmVyYXRlZCBJbWFnZWlkYzpmb3JtYXRtaW1hZ2Uvc3ZnK3htbGppbnN0YW5jZUlEeCx4bXA6aWlkOmVmMzY0YmZjLTY0MzctNGRjNy1iYTVhLWY2MjM4YWMzODVkM29jbGFpbV9nZW5lcmF0b3J4N0Fkb2JlX0lsbHVzdHJhdG9yLzI5LjcgYWRvYmVfYzJwYS8wLjEyLjIgYzJwYS1ycy8wLjMyLjV0Y2xhaW1fZ2VuZXJhdG9yX2luZm+Bv2RuYW1lcUFkb2JlIElsbHVzdHJhdG9yZ3ZlcnNpb25kMjkuN/9pc2lnbmF0dXJleBlzZWxmI2p1bWJmPWMycGEuc2lnbmF0dXJlamFzc2VydGlvbnOComN1cmx4J3NlbGYjanVtYmY9YzJwYS5hc3NlcnRpb25zL2MycGEuYWN0aW9uc2RoYXNoWCBKacG9/6jeQTB4viTtzPgxOsHRZJU0VnGgDWsGszfUr6JjdXJseClzZWxmI2p1bWJmPWMycGEuYXNzZXJ0aW9ucy9jMnBhLmhhc2guZGF0YWRoYXNoWCAjhWLAU1EpjT0UifHeO+GduI+Bc5v6fHIunkgMNegdHWNhbGdmc2hhMjU2AAAwEGp1bWIAAAAoanVtZGMyY3MAEQAQgAAAqgA4m3EDYzJwYS5zaWduYXR1cmUAAAAv4GNib3LShFkNFKIBOCQYIYJZBqAwggacMIIEhKADAgECAhRJcyBrPnXfyWyvf1b/LSqtsEAH3TANBgkqhkiG9w0BAQsFADB1MQswCQYDVQQGEwJVUzEjMCEGA1UEChMaQWRvYmUgU3lzdGVtcyBJbmNvcnBvcmF0ZWQxHTAbBgNVBAsTFEFkb2JlIFRydXN0IFNlcnZpY2VzMSIwIAYDVQQDExlBZG9iZSBQcm9kdWN0IFNlcnZpY2VzIEc0MB4XDTI1MTAwNzE2MzkwN1oXDTI2MTAwNzE2MzkwN1owgasxEzARBgNVBAMMCkFkb2JlIEMyUEExKDAmBgNVBAsMH0NvbnRlbnQgQXV0aGVudGljaXR5IEluaXRpYXRpdmUxEzARBgNVBAoMCkFkb2JlIEluYy4xETAPBgNVBAcMCFNhbiBKb3NlMRMwEQYDVQQIDApDYWxpZm9ybmlhMQswCQYDVQQGEwJVUzEgMB4GCSqGSIb3DQEJARYRY2FpLW9wc0BhZG9iZS5jb20wggEiMA0GCSqGSIb3DQEBAQUAA4IBDwAwggEKAoIBAQDDEMGB0H09cukxc/Dmg2BiQVYM8/VpJ+2H1Nk8g0605CWGnW/iH6EzFlYWORndElG6hIGuxJJgFoR+IMwqKyL+w7G4UcoFX/+XWu/dKuOuLEA1ciWqMZ0hjJ1oxoVr/mi8XP+bj5JTPRxxjOrD69IDO5HJIaemCbwaaP5IQlwv8YgfOpT1tTLc2yLNjahjbzKPfatuQ6p4ANIznU6ogkqWgQEUV7HMy6fOlT4rawuqF6hHwUkxpHR8Zdr+CpHOGSIEWHBSEs9L2zr5MKfPT1RkyVdt0b+IUqPdQ8VQOOqHTC0WBzPbgOtSVpZ6KW0oei7KYEe6KvO+Y4bRW1I96nE5AgMBAAGjggHrMIIB5zAMBgNVHRMBAf8EAjAAMB0GA1UdDgQWBBRY9QN+0GYM4Y4OVqGXQknSuyfC/jAfBgNVHSMEGDAWgBTQrUKK8HoUByXGl8BDqCOF6LUtIzAOBgNVHQ8BAf8EBAMCB4AwKgYDVR0lBCMwIQYJKoZIhvcvAQEMBgorBgEEAYPoXgIBBggrBgEFBQcDBDCBgAYIKwYBBQUHAQEEdDByMCgGCCsGAQUFBzABhhxodHRwOi8vb2NzcC5vbmUuZGlnaWNlcnQuY29tMEYGCCsGAQUFBzAChjpodHRwOi8vY2FjZXJ0cy5vbmUuZGlnaWNlcnQuY29tL0Fkb2JlUHJvZHVjdFNlcnZpY2VzRzQuY3J0MEcGA1UdHwRAMD4wPKA6oDiGNmh0dHA6Ly9jcmwub25lLmRpZ2ljZXJ0LmNvbS9BZG9iZVByb2R1Y3RTZXJ2aWNlc0c0LmNybDCBjgYDVR0gBIGGMIGDMIGABgkqhkiG9y8BAgMwczBxBggrBgEFBQcCAjBlDGNZb3UgYXJlIG5vdCBwZXJtaXR0ZWQgdG8gdXNlIHRoaXMgTGljZW5zZSBDZXJ0aWZpY2F0ZSBleGNlcHQgYXMgcGVybWl0dGVkIGJ5IHRoZSBsaWNlbnNlIGFncmVlbWVudC4wDQYJKoZIhvcNAQELBQADggIBAJs7c8VwrVF+V6FDXrEeoTUZzzqRJGAXoQ7AiV6daRHHZVJPY2NO9OU6dahtUvF/2AUgw216awWggF82Zz5Hu34Y0Mz6FJ+y0smSoWoCVA61OJo5qSDpzS5tJVaqCx7+mI9rXmT+qsuki7hUF7cGbK05JJX4cU48qx3tw7T2wl4Mxq2TcriMcx79qdcRJReVo362iW9eDqoBDxcTVxJvrlAUGJrBQx6PqNBuQ1mneOeis4GpIl87EhDDv39acUxh/FEf+UjauxjjdimGpdwFeJ+MlDSPEUyokY2ubb/I4MvoEZW2uOf3uSh9lbZwoXPmsNJPOVwURwpQAHWJbt555NIqXNGRX46TaJvziVMWA1uL1QGdPcotLoSRksQil0DaHhK56fWnAeNaZmzFYDeH/f06hyw56Ass2+l1VEuW1/bqPvahpAd9PRDKHOvMNbjwUk3eiUmqUIEKTQbnCnc7kqkZ3I+r2EAaNMmu+nGycJdKqjplnO8mV+QmqQBrpd/3YsrrLCudTPLxoERASfIEXvqOg8zeBNYyclU8I+XUH0XLD63KpiC00yAnK+W0hyWvHirsMuW4ytv3YGeg3qdrD5t3Pkg3+ipHUoTNiuEPbiil2S1j0CyvdHcoUOB0++/+v9GTi921ieTIB1zzPGfKGdQdykAf0UOysArVG+Brix6yWQZnMIIGYzCCBEugAwIBAgIQDuG63614rm8mvVElmAeILzANBgkqhkiG9w0BAQsFADBsMQswCQYDVQQGEwJVUzEjMCEGA1UEChMaQWRvYmUgU3lzdGVtcyBJbmNvcnBvcmF0ZWQxHTAbBgNVBAsTFEFkb2JlIFRydXN0IFNlcnZpY2VzMRkwFwYDVQQDExBBZG9iZSBSb290IENBIEcyMB4XDTI0MTEyMDAwMDAwMFoXDTQ0MTExOTIzNTk1OVowdTELMAkGA1UEBhMCVVMxIzAhBgNVBAoTGkFkb2JlIFN5c3RlbXMgSW5jb3Jwb3JhdGVkMR0wGwYDVQQLExRBZG9iZSBUcnVzdCBTZXJ2aWNlczEiMCAGA1UEAxMZQWRvYmUgUHJvZHVjdCBTZXJ2aWNlcyBHNDCCAiIwDQYJKoZIhvcNAQEBBQADggIPADCCAgoCggIBAKxF+ICxWEi8zumCmeLCiU7as6RDEkgB/y6nFXeceMAQC5afyCzXeWyQJolO7Cmi4Nw5vtexdD3zVCwG7cUAn3kHrNaLNtkGS+qp7jCG3QpvASkdR+ujOpyWiOB/iBlyWR+8djFpjv3N323tR4Don9zeZ23+Gctlmd+D5KvI1zKQdWYHKtMxFJaRKXwrebOE4it4lVoPfY843ve9N7cuJlFyj2Vu3NLrr1RgEF+jdUAAEynThGKVVoUKG1abmuvmLq34LluAcRIME0TE8EuGMNvomTLAYI2c4MSXxhrJqThlWRo+MsXi+J5S/VYsm+hvd4Flwus+qF4cA+1QEDNMiidxPTMji3OXNAhsnFWNFFBt0RzTNSFsOQObDKTo90YBvEfT6JGqjwkr7hEfj87gcNVXkzoJSHEADJ4kNnJu5rgef2LvYp4dG1EpQskGMrZaq55gDcbKVm4rnY5M93lHsG4DEusf/3YihdPOdc0sDgmDDJiuQR6Glb1fK4Se0J9vomXSSW1p3ICv3TUpeKd/GRb3ChDFpMfHDv0UjfCRh9eeRBXFGCWkB6DUvSMz6uAHFpDuXiRyemRjjszJTWwx0p6HByMdtvRQhhA/JfgEcLEtUcb5MToCr+DwIO4ZaoNaktJvJOQHtG0TQbArhIg+/35UrTbVPbZg7pxmQnjTgbPvAgMBAAGjgfcwgfQwEgYDVR0TAQH/BAgwBgEB/wIBADA1BgNVHR8ELjAsMCqgKKAmhiRodHRwOi8vY3JsLmFkb2JlLmNvbS9hZG9iZXJvb3RnMi5jcmwwDgYDVR0PAQH/BAQDAgGGMFcGA1UdIARQME4wTAYJKoZIhvcvAQIDMD8wPQYIKwYBBQUHAgEWMWh0dHBzOi8vd3d3LmFkb2JlLmNvbS9taXNjL3BraS9wcm9kX3N2Y2VfY3BzLmh0bWwwHQYDVR0OBBYEFNCtQorwehQHJcaXwEOoI4XotS0jMB8GA1UdIwQYMBaAFKYc4W1UJEyoj0hyv26pjNXk7DHUMA0GCSqGSIb3DQEBCwUAA4ICAQCRlqhDU07OWLmha2+YptYEMFr3tEE9vhBLlnlN7oeKRW9S8UVEGJUNwGnw4HMy2IIeGGc6pn2h+s6ZV6xJ8CdjgMT8Zp5OtaNNe5O/qH37EETsDxN79lUDolWAnO9GT1Ln1fT25z7n+ilSPQ5EMUzKsTRslqJMVQeTOYWNYX80+eFeoT8/0s6NZLsxodw4l+pBRdyvI5g2g/vgxTYPQjdjBeqIIPBZfW5PI6WJwesJW65tXaqd1GNmkkDPlO3ZcS8qj0TONxpCfrDsjTm+OpX9k2Yvyljuz/GLssmw9hpwwOa9gSIOhVrR1hSCoWkrHQ1KWeaedPREi0AdlQ0NXClPmf7AxCZN8e4fkNovduPXyTnI43nN8PFMsUmySUxb9RtyWOH87KuJjBVkgX2PbIRvCxnQ6RrzElMbzKfw/oDRs8Psq/mm3OqVxGE8JqEH7yl3mLa7OQEk6bAMjqEoORkxudGTf0beyV72Iu5MlklIZ9L3J7XLIObmURgVhJfzmBfubLwfRGm1aaScfeyCL/38T0jKtKqYklDi1A3VbWPBSMn8sCcS7cOrbRLQtm1Y6qES+zE5Lvt/HnsVAeB1caQuxP+Fblc7a4xQb6sRmy6FmVWFbqwC1yzeXbSo9ki2+zd3OezgyfNmWgoEj3MwlbQXMNi9Vq8kA9Hf4rayLs28fqNmc2lnVHN0oWl0c3RUb2tlbnOBoWN2YWxZDlgwgg5UMAMCAQAwgg5LBgkqhkiG9w0BBwKggg48MIIOOAIBAzEPMA0GCWCGSAFlAwQCAQUAMIGCBgsqhkiG9w0BCRABBKBzBHEwbwIBAQYJYIZIAYb9bAcBMDEwDQYJYIZIAWUDBAIBBQAEIA0DmGVom+kElefp4GKSgkrHPEJIc8f+kMv/7d4dKLB+AhEA0U4avsPrayTliOfNFpENwBgPMjAyNTEwMjkxMjM4NDNaAggQ3J3Kw9HJqaCCC9owggUeMIIDBqADAgECAhAJGQ3BLJyH2zL9CrVQve1LMA0GCSqGSIb3DQEBCwUAMGkxCzAJBgNVBAYTAlVTMRcwFQYDVQQKEw5EaWdpQ2VydCwgSW5jLjFBMD8GA1UEAxM4RGlnaUNlcnQgVHJ1c3RlZCBHNCBUaW1lU3RhbXBpbmcgUlNBNDA5NiBTSEEyNTYgMjAyNSBDQTEwHhcNMjUwNjExMDAwMDAwWhcNMzYwOTEwMjM1OTU5WjBfMQswCQYDVQQGEwJVUzEXMBUGA1UEChMORGlnaUNlcnQsIEluYy4xNzA1BgNVBAMTLkFkb2JlIFNIQTI1NiBFQ0MyNTYgVGltZXN0YW1wIFJlc3BvbmRlciAyMDI1IDEwWTATBgcqhkjOPQIBBggqhkjOPQMBBwNCAAQ6mcnV2UjvS/OI18aycCDz3iLKcO/5PIz9YsMW+WTtD24jd4o1bm7HW81d/LCte4Z0tLuYZxjhHR9hJ7FMEanyo4IBlTCCAZEwDAYDVR0TAQH/BAIwADAdBgNVHQ4EFgQUIHaho25xFY90lQ2upCykNj9YGRUwHwYDVR0jBBgwFoAU729TSunkBnx6yuKQVvYv1Ensy04wDgYDVR0PAQH/BAQDAgeAMBYGA1UdJQEB/wQMMAoGCCsGAQUFBwMIMIGVBggrBgEFBQcBAQSBiDCBhTAkBggrBgEFBQcwAYYYaHR0cDovL29jc3AuZGlnaWNlcnQuY29tMF0GCCsGAQUFBzAChlFodHRwOi8vY2FjZXJ0cy5kaWdpY2VydC5jb20vRGlnaUNlcnRUcnVzdGVkRzRUaW1lU3RhbXBpbmdSU0E0MDk2U0hBMjU2MjAyNUNBMS5jcnQwXwYDVR0fBFgwVjBUoFKgUIZOaHR0cDovL2NybDMuZGlnaWNlcnQuY29tL0RpZ2lDZXJ0VHJ1c3RlZEc0VGltZVN0YW1waW5nUlNBNDA5NlNIQTI1NjIwMjVDQTEuY3JsMCAGA1UdIAQZMBcwCAYGZ4EMAQQCMAsGCWCGSAGG/WwHATANBgkqhkiG9w0BAQsFAAOCAgEASpz+Ks655Om2nuuJjZLgL3oFXxeFme+djwiBdVPkHISv4fRDXtO/UgFO7Oun+s6OoNrYKQ6GxaRLUu23DmrCeEyvBdE5RX/CAEtK473PsDso8c1tmkjqDSHzgxDRswoX/EHWIsSRrjJM8RWB7Kd3KPja0juZtkFVpJzqjk/dqJ9UaqyiKfKrCRiwIpLU1CdBRFnj6uxJTfh0y7xzr+rWOPHVMJNezF53iJo9wi+QSOX2ee6ZrbdKAYHWO8sM+EZG0vzNaWeqUN1LlTg57Q1PKpKCxiCmKgqsxGXmScWisZPzjEuUOyrLD9OJjyvXO8SeHvf6xPFwhnCE3gc2edsH7QCVdsJ3OpKZ7JMubwI2GwqI9MgwGnKJG35k+8vQE9MLziVD30i4y8jyOSdMafeXHYvGx0aGAwCObM2ezGSmndVWr9DPh1cGamNArjTUkcWRF0yo0UzJwdG14VQqPl5nlj/2tLqk206DT2FsIMQKCa42UJbIhS2hdLxnHN8SpkpyeU62gU4VT5ZRWaqmbvw+4QFIgHQoWPeMOwNpVHqfWAocb2v7bsomgvKoMd55kjGjbnct65xikEaSMe5TlGjNmfozbq1BC8OLF9eqA6L4ZW1ZieRJIP0YBi9EiQX5mH0LNyNWA/CugYgd9bxzRHF+9RoVX8ar833EfBpGPsRSHkwwgga0MIIEnKADAgECAhANx6xXBf8hmS5AQyIMOkmGMA0GCSqGSIb3DQEBCwUAMGIxCzAJBgNVBAYTAlVTMRUwEwYDVQQKEwxEaWdpQ2VydCBJbmMxGTAXBgNVBAsTEHd3dy5kaWdpY2VydC5jb20xITAfBgNVBAMTGERpZ2lDZXJ0IFRydXN0ZWQgUm9vdCBHNDAeFw0yNTA1MDcwMDAwMDBaFw0zODAxMTQyMzU5NTlaMGkxCzAJBgNVBAYTAlVTMRcwFQYDVQQKEw5EaWdpQ2VydCwgSW5jLjFBMD8GA1UEAxM4RGlnaUNlcnQgVHJ1c3RlZCBHNCBUaW1lU3RhbXBpbmcgUlNBNDA5NiBTSEEyNTYgMjAyNSBDQTEwggIiMA0GCSqGSIb3DQEBAQUAA4ICDwAwggIKAoICAQC0eDHTCphBcr48RsAcrHXbo0ZodLRRF51NrY0NlLWZloMsVO1DahGPNRcybEKq+RuwOnPhof6pvF4uGjwjqNjfEvUi6wuim5bap+0lgloM2zX4kftn5B1IpYzTqpyFQ/4Bt0mAxAHeHYNnQxqXmRinvuNgxVBdJkf77S2uPoCj7GH8BLuxBG5AvftBdsOECS1UkxBvMgEdgkFiDNYiOTx4OtiFcMSkqTtF2hfQz3zQSku2Ws3IfDReb6e3mmdglTcaarps0wjUjsZvkgFkriK9tUKJm/s80FiocSk1VYLZlDwFt+cVFBURJg6zMUjZa/zbCclF83bRVFLeGkuAhHiGPMvSGmhgaTzVyhYn4p0+8y9oHRaQT/aofEnS5xLrfxnGpTXiUOeSLsJygoLPp66bkDX1ZlAeSpQl92QOMeRxykvq6gbylsXQskBBBnGy3tW/AMOMCZIVNSaz7BX8VtYGqLt9MmeOreGPRdtBx3yGOP+rx3rKWDEJlIqLXvJWnY0v5ydPpOjL6s36czwzsucuoKs7Yk/ehb//Wx+5kMqIMRvUBDx6z1ev+7psNOdgJMoiwOrUG2ZdSoQbU2rMkpLiQ6bGRinZbI4OLu9BMIFm1UUl9VnePs6BaaeEWvjJSjNm2qA+sdFUeEY0qVjPKOWug/G6X5uAiynM7Bu2ayBjUwIDAQABo4IBXTCCAVkwEgYDVR0TAQH/BAgwBgEB/wIBADAdBgNVHQ4EFgQU729TSunkBnx6yuKQVvYv1Ensy04wHwYDVR0jBBgwFoAU7NfjgtJxXWRM3y5nP+e6mK4cD08wDgYDVR0PAQH/BAQDAgGGMBMGA1UdJQQMMAoGCCsGAQUFBwMIMHcGCCsGAQUFBwEBBGswaTAkBggrBgEFBQcwAYYYaHR0cDovL29jc3AuZGlnaWNlcnQuY29tMEEGCCsGAQUFBzAChjVodHRwOi8vY2FjZXJ0cy5kaWdpY2VydC5jb20vRGlnaUNlcnRUcnVzdGVkUm9vdEc0LmNydDBDBgNVHR8EPDA6MDigNqA0hjJodHRwOi8vY3JsMy5kaWdpY2VydC5jb20vRGlnaUNlcnRUcnVzdGVkUm9vdEc0LmNybDAgBgNVHSAEGTAXMAgGBmeBDAEEAjALBglghkgBhv1sBwEwDQYJKoZIhvcNAQELBQADggIBABfO+xaAHP4HPRF2cTC9vgvItTSmf83Qh8WIGjB/T8ObXAZz8OjuhUxjaaFdleMM0lBryPTQM2qEJPe36zwbSI/mS83afsl3YTj+IQhQE7jU/kXjjytJgnn0hvrV6hqWGd3rLAUt6vJy9lMDPjTLxLgXf9r5nWMQwr8Myb9rEVKChHyfpzee5kH0F8HABBgr0UdqirZ7bowe9Vj2AIMD8liyrukZ2iA/wdG2th9y1IsA0QF8dTXqvcnTmpfeQh35k5zOCPmSNq1UH410ANVko43+Cdmu4y81hjajV/gxdEkMx1NKU4uHQcKfZxAvBAKqMVuqte69M9J6A47OvgRaPs+2ykgcGV00TYr2Lr3ty9qIijanrUR3anzEwlvzZiiyfTPjLbnFRsjsYg39OlV8cipDoq7+qNNjqFzeGxcytL5TTLL4ZaoBdqbhOhZ3ZRDUphPvSRmMThi0vw9vODRzW6AxnJll38F0cuJG7uEBYTptMSbhdhGQDpOXgpIUsWTjd6xpR6oaQf/DJbg3s6KCLPAlZ66RzIg9sC+NJpud/v4+7RWsWCiKi9EOLLHfMR2ZyJ/+xhCx9yHbxtl5TPau1j/1MIDpMPx0LckTetiSuEtQvLsNz3Qbp7wGWqbIiOWCnb5WqxL3/BAPvIXKUjPSxyZsq8WhbaM2tszWkPZPubdcMYIBvTCCAbkCAQEwfTBpMQswCQYDVQQGEwJVUzEXMBUGA1UEChMORGlnaUNlcnQsIEluYy4xQTA/BgNVBAMTOERpZ2lDZXJ0IFRydXN0ZWQgRzQgVGltZVN0YW1waW5nIFJTQTQwOTYgU0hBMjU2IDIwMjUgQ0ExAhAJGQ3BLJyH2zL9CrVQve1LMA0GCWCGSAFlAwQCAQUAoIHRMBoGCSqGSIb3DQEJAzENBgsqhkiG9w0BCRABBDAcBgkqhkiG9w0BCQUxDxcNMjUxMDI5MTIzODQzWjArBgsqhkiG9w0BCRACDDEcMBowGDAWBBTXh7p5KWOfuMEvSqYWUXTL4KWA8zAvBgkqhkiG9w0BCQQxIgQgxxqBWZ/R4lxXH7f4zYA94OJb0FaCoBQCW8u6/pQ0VekwNwYLKoZIhvcNAQkQAi8xKDAmMCQwIgQg0yOv4l/dPRbyby8lnnzkiduG0tmqsHsm9Zg3CGCJVngwCgYIKoZIzj0EAwIERjBEAiA39WhwrN4ef0mAI39TRPvgAvUuZtr6id0Q6XJLFhvoaAIgIZvKiub1HY9jeuVA0Z8a5FYPdV9TL59njX/hPVwV8sFlclZhbHOhaG9jc3BWYWxzgVkC2zCCAtcKAQCgggLQMIICzAYJKwYBBQUHMAEBBIICvTCCArkwgaKiFgQU0K1CivB6FAclxpfAQ6gjhei1LSMYDzIwMjUxMDI2MTY0MTEyWjB3MHUwTTAJBgUrDgMCGgUABBSK77IBEG9rZRVNwaO3UamLc5LLFgQU0K1CivB6FAclxpfAQ6gjhei1LSMCFElzIGs+dd/JbK9/Vv8tKq2wQAfdgAAYDzIwMjUxMDI2MTY0MTEyWqARGA8yMDI1MTEwMjE2NDExMlowDQYJKoZIhvcNAQELBQADggIBAHCmd2Dtrk2XmAhtI9kKxuaygatQBb8lz3Jhpn3FkyUT26sXENXerzPSD+u1LaNFfhgq9nGFYFCXHtfcL1b791tWwjH2FznOTpwBARU7RpSsZO44hu7dcyR15gWlM6pS3mOXCQH23at0gf70t0p2ugf8BkUNE6vZiCtxmJXwRNfQc4eIjXJUoXdNpKfN7scrUAJbuibiES4PW9DvdQv4nvg88zyi8Bcqdkv/UjiTpkqwYJuAbJ7ux1eT3mPKeSzNH/3uhITXg2NyH1JXhHCJ6C5U/RXenPLk092MqXor7OKsVfwc1xXoYmknZtrHuvykeAGvXfeiMmFUgSG1VSW+l470/Z8HoQldDuaFu2BCUQZPnu/dFkoW1lcaBAmMjKGqi4e759EiA81I0U4uj3/F6+ou/oHL2drjRZ83kxB/600jfoiQzxohumlVXua6nCOfTL+i92G5poBrFfFA+kyAw2of+/SnATLQnForQ42VrbAHtP4GpL01xTAgV6lJEbTkSl1pv6VLWU600b7bM/4k/wuv0X6DrgHsbsXaBUptEDVcYcEhe5W0zFuWHsMdhg9lsWtB+7Zq32FvAXibkE0bc2yGpFdUTTXt4+Rv3OPPvJZJhAz6d6S5aB+J7QQFqxBjiXgCNdCqB3lV6t9jUSofFDmJLhTDPCimn52Y+q/pbJmDY3BhZFkQUQAAAAAAAAAAAAAAAAAAAAAAAAAAAAAAAAAAAAAAAAAAAAAAAAAAAAAAAAAAAAAAAAAAAAAAAAAAAAAAAAAAAAAAAAAAAAAAAAAAAAAAAAAAAAAAAAAAAAAAAAAAAAAAAAAAAAAAAAAAAAAAAAAAAAAAAAAAAAAAAAAAAAAAAAAAAAAAAAAAAAAAAAAAAAAAAAAAAAAAAAAAAAAAAAAAAAAAAAAAAAAAAAAAAAAAAAAAAAAAAAAAAAAAAAAAAAAAAAAAAAAAAAAAAAAAAAAAAAAAAAAAAAAAAAAAAAAAAAAAAAAAAAAAAAAAAAAAAAAAAAAAAAAAAAAAAAAAAAAAAAAAAAAAAAAAAAAAAAAAAAAAAAAAAAAAAAAAAAAAAAAAAAAAAAAAAAAAAAAAAAAAAAAAAAAAAAAAAAAAAAAAAAAAAAAAAAAAAAAAAAAAAAAAAAAAAAAAAAAAAAAAAAAAAAAAAAAAAAAAAAAAAAAAAAAAAAAAAAAAAAAAAAAAAAAAAAAAAAAAAAAAAAAAAAAAAAAAAAAAAAAAAAAAAAAAAAAAAAAAAAAAAAAAAAAAAAAAAAAAAAAAAAAAAAAAAAAAAAAAAAAAAAAAAAAAAAAAAAAAAAAAAAAAAAAAAAAAAAAAAAAAAAAAAAAAAAAAAAAAAAAAAAAAAAAAAAAAAAAAAAAAAAAAAAAAAAAAAAAAAAAAAAAAAAAAAAAAAAAAAAAAAAAAAAAAAAAAAAAAAAAAAAAAAAAAAAAAAAAAAAAAAAAAAAAAAAAAAAAAAAAAAAAAAAAAAAAAAAAAAAAAAAAAAAAAAAAAAAAAAAAAAAAAAAAAAAAAAAAAAAAAAAAAAAAAAAAAAAAAAAAAAAAAAAAAAAAAAAAAAAAAAAAAAAAAAAAAAAAAAAAAAAAAAAAAAAAAAAAAAAAAAAAAAAAAAAAAAAAAAAAAAAAAAAAAAAAAAAAAAAAAAAAAAAAAAAAAAAAAAAAAAAAAAAAAAAAAAAAAAAAAAAAAAAAAAAAAAAAAAAAAAAAAAAAAAAAAAAAAAAAAAAAAAAAAAAAAAAAAAAAAAAAAAAAAAAAAAAAAAAAAAAAAAAAAAAAAAAAAAAAAAAAAAAAAAAAAAAAAAAAAAAAAAAAAAAAAAAAAAAAAAAAAAAAAAAAAAAAAAAAAAAAAAAAAAAAAAAAAAAAAAAAAAAAAAAAAAAAAAAAAAAAAAAAAAAAAAAAAAAAAAAAAAAAAAAAAAAAAAAAAAAAAAAAAAAAAAAAAAAAAAAAAAAAAAAAAAAAAAAAAAAAAAAAAAAAAAAAAAAAAAAAAAAAAAAAAAAAAAAAAAAAAAAAAAAAAAAAAAAAAAAAAAAAAAAAAAAAAAAAAAAAAAAAAAAAAAAAAAAAAAAAAAAAAAAAAAAAAAAAAAAAAAAAAAAAAAAAAAAAAAAAAAAAAAAAAAAAAAAAAAAAAAAAAAAAAAAAAAAAAAAAAAAAAAAAAAAAAAAAAAAAAAAAAAAAAAAAAAAAAAAAAAAAAAAAAAAAAAAAAAAAAAAAAAAAAAAAAAAAAAAAAAAAAAAAAAAAAAAAAAAAAAAAAAAAAAAAAAAAAAAAAAAAAAAAAAAAAAAAAAAAAAAAAAAAAAAAAAAAAAAAAAAAAAAAAAAAAAAAAAAAAAAAAAAAAAAAAAAAAAAAAAAAAAAAAAAAAAAAAAAAAAAAAAAAAAAAAAAAAAAAAAAAAAAAAAAAAAAAAAAAAAAAAAAAAAAAAAAAAAAAAAAAAAAAAAAAAAAAAAAAAAAAAAAAAAAAAAAAAAAAAAAAAAAAAAAAAAAAAAAAAAAAAAAAAAAAAAAAAAAAAAAAAAAAAAAAAAAAAAAAAAAAAAAAAAAAAAAAAAAAAAAAAAAAAAAAAAAAAAAAAAAAAAAAAAAAAAAAAAAAAAAAAAAAAAAAAAAAAAAAAAAAAAAAAAAAAAAAAAAAAAAAAAAAAAAAAAAAAAAAAAAAAAAAAAAAAAAAAAAAAAAAAAAAAAAAAAAAAAAAAAAAAAAAAAAAAAAAAAAAAAAAAAAAAAAAAAAAAAAAAAAAAAAAAAAAAAAAAAAAAAAAAAAAAAAAAAAAAAAAAAAAAAAAAAAAAAAAAAAAAAAAAAAAAAAAAAAAAAAAAAAAAAAAAAAAAAAAAAAAAAAAAAAAAAAAAAAAAAAAAAAAAAAAAAAAAAAAAAAAAAAAAAAAAAAAAAAAAAAAAAAAAAAAAAAAAAAAAAAAAAAAAAAAAAAAAAAAAAAAAAAAAAAAAAAAAAAAAAAAAAAAAAAAAAAAAAAAAAAAAAAAAAAAAAAAAAAAAAAAAAAAAAAAAAAAAAAAAAAAAAAAAAAAAAAAAAAAAAAAAAAAAAAAAAAAAAAAAAAAAAAAAAAAAAAAAAAAAAAAAAAAAAAAAAAAAAAAAAAAAAAAAAAAAAAAAAAAAAAAAAAAAAAAAAAAAAAAAAAAAAAAAAAAAAAAAAAAAAAAAAAAAAAAAAAAAAAAAAAAAAAAAAAAAAAAAAAAAAAAAAAAAAAAAAAAAAAAAAAAAAAAAAAAAAAAAAAAAAAAAAAAAAAAAAAAAAAAAAAAAAAAAAAAAAAAAAAAAAAAAAAAAAAAAAAAAAAAAAAAAAAAAAAAAAAAAAAAAAAAAAAAAAAAAAAAAAAAAAAAAAAAAAAAAAAAAAAAAAAAAAAAAAAAAAAAAAAAAAAAAAAAAAAAAAAAAAAAAAAAAAAAAAAAAAAAAAAAAAAAAAAAAAAAAAAAAAAAAAAAAAAAAAAAAAAAAAAAAAAAAAAAAAAAAAAAAAAAAAAAAAAAAAAAAAAAAAAAAAAAAAAAAAAAAAAAAAAAAAAAAAAAAAAAAAAAAAAAAAAAAAAAAAAAAAAAAAAAAAAAAAAAAAAAAAAAAAAAAAAAAAAAAAAAAAAAAAAAAAAAAAAAAAAAAAAAAAAAAAAAAAAAAAAAAAAAAAAAAAAAAAAAAAAAAAAAAAAAAAAAAAAAAAAAAAAAAAAAAAAAAAAAAAAAAAAAAAAAAAAAAAAAAAAAAAAAAAAAAAAAAAAAAAAAAAAAAAAAAAAAAAAAAAAAAAAAAAAAAAAAAAAAAAAAAAAAAAAAAAAAAAAAAAAAAAAAAAAAAAAAAAAAAAAAAAAAAAAAAAAAAAAAAAAAAAAAAAAAAAAAAAAAAAAAAAAAAAAAAAAAAAAAAAAAAAAAAAAAAAAAAAAAAAAAAAAAAAAAAAAAAAAAAAAAAAAAAAAAAAAAAAAAAAAAAAAAAAAAAAAAAAAAAAAAAAAAAAAAAAAAAAAAAAAAAAAAAAAAAAAAAAAAAAAAAAAAAAAAAAAAAAAAAAAAAAAAAAAAAAAAAAAAAAAAAAAAAAAAAAAAAAAAAAAAAAAAAAAAAAAAAAAAAAAAAAAAAAAAAAAAAAAAAAAAAAAAAAAAAAAAAAAAAAAAAAAAAAAAAAAAAAAAAAAAAAAAAAAAAAAAAAAAAAAAAAAAAAAAAAAAAAAAAAAAAAAAAAAAAAAAAAAAAAAAAAAAAAAAAAAAAAAAAAAAAAAAAAAAAAAAAAAAAAAAAAAAAAAAAAAAAAAAAAAAAAAAAAAAAAAAAAAAAAAAAAAAAAAAAAAAAAAAAAAAAAAAAAAAAAAAAAAAAAAAAAAAAAAAAAAAAAAAAAAAAAAAAAAAAAAAAAAAAAAAAAAAAAAAAAAAAAAAAAAAAAAAAAAAAAAAAAAAAAAAAAAAAAAAAAAAAAAAAAAAAAAAAAAAAAAAAAAAAAAAAAAAAAAAAAAAAAAAAAAAAAAAAAAAAAAAAAAAAAAAAAAAAAAAAAAAAAAAAAAAAAAAAAAAAAAAAAAAAAAAAAAAAAAAAAAAAAAAAAAAAAAAAAAAAAAAAAAAAAAAAAAAAAAAAAAAAAAAAAAAAAAAAAAAAAAAAAAAAAAAAAAAAAAAAAAAAAAAAAAAAAAAAAAAAAAAAAAAAAAAAAAAAAAAAAAAAAAAAAAAAAAAAAAAAAAAAAAAAAAAAAAAAAAAAAAAAAAAAAAAAAAAAAAAAAAAAAAAAAAAAAAAAAAAAAAAAAAAAAAAAAAAAAAAAAAAAAAAAAAAAAAAAAAAAAAAAAAAAAAAAAAAAAAAAAAAAAAAAAAAAAAAAAAAAAAAAAAAAAAAAAAAAAAAAAAAAAAAAAAAAAAAAAAAAAAAAAAAAAAAAAAAAAAAAAAAAAAAAAAAAAAAAAAAAAAAAAAAAAAAAAAAAAAAAAAAAAAAAAAAAAAAAAAAAAAAAAAAAAAAAAAAAAAAAAAAAAAAAAAAAAAAAAAAAAAAAAAAAAAAAAAAAAAAAAAAAAAAAAAAAAAAAAAAAAAAAAAAAAAAAAAAAAAAAAAAAAAAAAAAAAAAAAAAAAAAAAAAAAAAAAAAAAAAAAAAAAAAAAAAAAAAAAAAAAAAAAAAAAAAAAAAAAAAAAAAAAAAAAAAAAAAAAAAAAAAAAAAAAAAAAAAAAAAAAAAAAAAAAAAAAAAAAAAAAAAAAAAAAAAAAAAAAAAAAAAAAAAAAAAAAAAAAAAAAAAAAAAAAAAAAAAAAAAAAAAAAAAAAAAAAAAAAAAAAAAAAAAAAAAAAAAAAAAAAAAAAAAAAAAAAAAAAAAAAAAAAAAAAAAAAAAAAAAAAAAAAAAAAAAAAAAAAAAAAAAAAAAAAAAAAAAAAAAAAAAAAAAAAAAAAAAAAAAAAAAAAAAAAAAAAAAAAAAAAAAAAAAAAAAAAAAAAAAAAAAAAAAAAAAAAAAAAAAAAAAAAAAAAAAAAAAAAAAAAAAAAAAAAAAAAAAAAAAAAAAAAAAAAAAAAAAAAAAAAAAAAAAAAAAAAAAAAAAAAAAAAAAAAAAAAAAAAAAAAAAAAAAAAAAAAAAAAAAAAAAAAAAAAAAAAAAAAAAAAAAAAAAAAAAAAAAAAAAAAAAAAAAAAAAAAAAAAAAAAAAAAAAAAAAAAAAAAAAAAAAAAAAAAAAAAAAAAAAAAAAAAAAAAAAAAAAAAAAAAAAAAAAAAAAAAAAAAAAAAAAAAAAAAAAAAAAAAAAAAAAAAAAAAAAAAAAAAAAAAAAAAAAAAAAAAAAAAAAAAAAAAAAAAAAAAAAAAAAAAAAAAAAAAAAAAAAAAAAAAAAAAAAAAAAAAAAAAAAAAAAAAAAAAAAAAAAAAAAAAAAAAAAAAAAAAAAAAAAAAAAAAAAAAAAAAAAAAAAAAAAAAAAAAAAAAAAAAAAAAAAAAAAAAAAAAAAAAAAAAAAAAAAAAAAAAAAAAAAAAAAAAAAAAAAAAAAAAAAAAAAAAAAAAAAAAAAAAAAAAAAAAAAAAAAAAAAAAAAAAAAAAAAAAAAAAAAAAAAAAAAAAAAAAAAAAAAAAAAAAAAAAAAAAAAAAAAAAAAAAAAAAAAAAAAAAAAAAAAAAAAAAAAAAAAAAAAAAAAAAAAAAAAAAAAAAAAAAAAAAAAAAAAAAAAAAAAAAAAAAAAAAAAAAAAAAAAAAAAAAAAAAAAAAAAAAAAAAAAAAAAAAAAAAAAAAAAAAAAAAAAAAAAAAAAAAAAAAAAAAAAAAAAAAAAAAAAAAAAAAAAAAAAAAAAAAAAAAAAAAAAAAAAAAAAAAAAAAAAAAAAAAAD2WQEAqcQBECGZLIqGRFMjTkHkClTCwteE92pEYIHeW/wN3yB/MGETOpVYOaJUHlB0CW7y1iJHUv8IIYXboJufAaUcGuXSsAper2Lievxc1VWATMPqm3GaGYADRxV+1GZiGVt13jEBbGdtwOF4K9ECgLIRi5lFZBztXjPvWPO9R/OV3Wn7mYnWCXq2J+PskZ2XcZEFCDmY/pztiWiWqmgBCGHQMZi+V0L9mUe1YkMGT8JvzFicDW1+qW+aOKy4L5eeHZIDAhLvJlBAl95GzFhfEQbAmrJTjeXnQRmKDx2qeYB1uqJtP5o8/1oLJS9ZoY1lR0BUMK/crkSUCpQ7B7AYl3Hx2w==</c2pa:manifest></metadata><rect x="181.51" y="80.95" width="4.35" height="16.84" fill="#024"/><path d="M183.68,74.7c-1.28,0-2.32,1.03-2.32,2.32s1.05,2.32,2.32,2.32,2.32-1.03,2.32-2.32-1.05-2.32-2.32-2.32Z" fill="#024"/><path d="M198.97,80.42c-1.86,0-4.25,1.1-5.76,2.21v-1.67h-4.35v16.84h4.35v-12.82c1.11-.64,2.75-1.17,3.99-1.17,2.26,0,2.45,1.97,2.45,3.81v10.17h4.35v-11.45c0-3.32-1.54-5.93-5.03-5.93Z" fill="#024"/><path d="M241.11,80.95h-4.35v16.84h4.35v-12.28c1.11-.64,2.49-1.35,3.76-1.47.91-.09,1.99.08,1.99.08v-3.16c-1.86,0-4.25.9-5.75,2v-2Z" fill="#024"/><path d="M226.07,80.42c-5.56,0-8.53,3.11-8.53,8.77s2.98,9.04,8.53,9.04,8.53-3.41,8.53-9.04-3.14-8.77-8.53-8.77ZM226.07,95.41c-3.27,0-4.22-3.41-4.22-6.16s1.05-5.82,4.22-5.82,4.25,3.08,4.25,5.82-.95,6.16-4.25,6.16Z" fill="#024"/><path d="M268.75,80.42c-1.9,0-4.32,1.44-5.89,2.51-.85-1.74-2.32-2.51-4.19-2.51-1.73,0-3.99,1.1-5.36,2.21v-1.67h-4.35v16.84h4.35v-12.82c.92-.64,2.29-1.17,3.4-1.17,2.26,0,2.49,1.97,2.49,3.81v10.17h4.35v-11.45c0-.47-.03-.94-.13-1.37.98-.64,2.26-1.17,3.4-1.17,2.22,0,2.62,1.94,2.62,3.81v10.17h4.35v-11.45c0-3.32-1.5-5.93-5.04-5.93Z" fill="#024"/><path d="M283.62,80.42c-2.09,0-4.09.67-5.85,1.77v1.87c1.57-.54,3.34-.77,4.97-.77,1.76,0,3.3.97,3.3,2.88v1c-4.15.17-10.1.8-10.1,6.29,0,2.91,2.32,4.75,5.04,4.75,1.99,0,4.19-1.27,5.36-2.91v2.48h3.92v-12.08c0-3.85-3.37-5.29-6.64-5.29ZM286.04,91.93c0,1.91-1.64,3.48-3.47,3.48-1.47,0-2.42-1.07-2.42-2.58,0-2.51,3.96-3.21,5.89-3.31v2.41Z" fill="#024"/><path d="M208.02,80.95h-2.01v2.93h2.01l.03,13.9h4.38v-13.9h4.55v-2.93h-4.58c0-2.14.49-3.58,2.91-3.58.55,0,1.12.05,1.67.13v-1.93c-1.08-.56-2.28-.92-3.5-.92-3.86,0-5.46,2.68-5.46,6.29Z" fill="#024"/><path d="M148.14,80.83c-1.34,0-2.43.26-3.29.77-.86.52-1.52,1.15-1.97,1.9h-.14c.02-.35.05-.85.08-1.49.04-.64.05-1.3.05-1.97v-5.9h-2.52v23.62h1.82l.52-2.23h.2c.46.71,1.11,1.31,1.95,1.8.84.49,1.93.74,3.24.74,1.41,0,2.63-.33,3.66-.99,1.03-.66,1.83-1.63,2.4-2.91.57-1.28.85-2.86.85-4.74,0-2.84-.62-4.99-1.86-6.43-1.24-1.44-2.9-2.16-4.99-2.16ZM151.21,94.26c-.77,1.13-1.94,1.7-3.48,1.7-1.84,0-3.11-.55-3.81-1.66-.7-1.11-1.05-2.71-1.05-4.8v-.14c0-1.45.15-2.64.46-3.59.31-.95.82-1.65,1.53-2.12s1.66-.71,2.87-.71c1.57,0,2.73.54,3.5,1.62.76,1.08,1.15,2.7,1.15,4.84s-.39,3.72-1.16,4.86Z" fill="#024"/><path d="M166.09,90.76c-.3.86-.59,1.7-.85,2.53-.26.82-.47,1.49-.61,2h-.11c-.08-.45-.19-.91-.33-1.38-.14-.48-.3-.97-.49-1.5-.18-.52-.38-1.06-.59-1.63l-3.67-9.65h-2.7l6.66,16.67-.91,2.34c-.24.63-.53,1.17-.87,1.62-.33.46-.73.8-1.19,1.04-.46.24-1,.36-1.63.36-.34,0-.68-.02-.99-.06-.32-.04-.59-.09-.81-.14v2.02c.26.07.58.13.94.19.36.06.78.08,1.26.08,1.03,0,1.91-.2,2.64-.61.73-.41,1.35-.99,1.86-1.75.51-.76.96-1.65,1.34-2.67l7.24-19.08h-2.72l-3.48,9.64Z" fill="#024"/><path d="M301.34,84.97c-2.52,0-4.57,2.04-4.55,4.57,0,2.51,2.05,4.55,4.57,4.54,2.51,0,4.55-2.05,4.54-4.57,0-2.51-2.05-4.54-4.55-4.54Z" fill="#024"/><path d="M314.93,84.97c-2.52,0-4.57,2.04-4.55,4.57,0,2.51,2.05,4.55,4.57,4.54,2.51,0,4.55-2.05,4.54-4.57,0-2.51-2.05-4.54-4.55-4.54Z" fill="#024" opacity=".4"/><path d="M328.52,84.97c-2.52,0-4.57,2.04-4.55,4.57,0,2.51,2.05,4.55,4.57,4.54,2.51,0,4.55-2.05,4.54-4.57,0-2.51-2.05-4.54-4.55-4.54Z" fill="#024" opacity=".4"/><path d="M145.28,49.23h-4.93v-30.74h-10.62v-4.24h26.15v4.24h-10.6v30.74Z" fill="#024"/><path d="M165.45,22.41c3.25,0,5.69.72,7.3,2.17,1.61,1.44,2.42,3.72,2.42,6.83v17.82h-3.45l-.93-3.83h-.19c-.73.96-1.5,1.75-2.3,2.39-.8.64-1.72,1.12-2.76,1.44-1.04.32-2.32.48-3.82.48-1.6,0-3.01-.29-4.26-.86s-2.22-1.44-2.93-2.6c-.71-1.16-1.06-2.63-1.06-4.41,0-2.68,1.03-4.71,3.09-6.1s5.18-2.15,9.35-2.27l4.55-.19v-1.48c0-2.06-.46-3.51-1.38-4.36-.92-.84-2.2-1.27-3.84-1.27-1.36,0-2.66.2-3.9.59-1.24.39-2.44.86-3.59,1.4l-1.53-3.49c1.24-.64,2.66-1.17,4.25-1.6,1.59-.43,3.25-.65,4.99-.65ZM170.41,36.43l-3.68.17c-3.05.11-5.19.62-6.42,1.52-1.24.9-1.85,2.16-1.85,3.77,0,1.4.42,2.43,1.27,3.09.85.65,1.96.98,3.35.98,2.14,0,3.9-.6,5.28-1.81,1.38-1.2,2.07-2.99,2.07-5.35v-2.37Z" fill="#024"/><path d="M177.65,22.86h5.19l5.6,15.19c.29.78.55,1.54.8,2.29.25.74.46,1.46.65,2.15.18.69.33,1.38.44,2.05h.17c.19-.81.46-1.8.81-2.97.35-1.16.73-2.34,1.15-3.54l5.36-15.17h5.17l-11.39,30.1c-.62,1.67-1.38,3.11-2.26,4.32-.88,1.2-1.93,2.13-3.15,2.78-1.21.65-2.65.97-4.31.97-.77,0-1.44-.04-2.02-.13-.58-.09-1.08-.19-1.5-.3v-3.83c.35.08.78.15,1.28.21.5.06,1.02.1,1.57.1,1,0,1.87-.2,2.6-.59.73-.39,1.35-.95,1.87-1.66.52-.72.95-1.56,1.3-2.51l1.2-3.11-10.53-26.34Z" fill="#024"/><path d="M211.43,49.23h-4.83V12h4.83v37.23Z" fill="#024"/><path d="M240.53,36c0,2.17-.28,4.1-.85,5.8-.57,1.7-1.39,3.13-2.46,4.31-1.08,1.17-2.37,2.07-3.89,2.68-1.52.61-3.23.92-5.14.92-1.79,0-3.43-.31-4.92-.92-1.49-.61-2.78-1.51-3.86-2.68-1.08-1.17-1.92-2.61-2.51-4.31-.59-1.7-.89-3.63-.89-5.8,0-2.89.49-5.35,1.48-7.38.99-2.03,2.4-3.58,4.25-4.64,1.84-1.06,4.04-1.59,6.59-1.59s4.55.53,6.39,1.6c1.83,1.07,3.26,2.62,4.28,4.64,1.02,2.03,1.53,4.48,1.53,7.37ZM220.94,36c0,2.03.26,3.77.78,5.23.52,1.46,1.32,2.58,2.39,3.36,1.08.78,2.47,1.17,4.17,1.17s3.05-.39,4.14-1.17c1.08-.78,1.88-1.9,2.39-3.36.51-1.46.77-3.2.77-5.23s-.26-3.73-.77-5.17c-.51-1.44-1.3-2.54-2.38-3.3-1.08-.77-2.48-1.15-4.2-1.15-2.52,0-4.37.84-5.54,2.52-1.17,1.68-1.76,4.05-1.76,7.09Z" fill="#024"/><path d="M258.31,22.39c.48,0,1,.03,1.56.08.56.06,1.04.12,1.44.2l-.5,4.47c-.38-.1-.83-.17-1.33-.24-.5-.06-.97-.1-1.4-.1-1.02,0-1.99.19-2.92.57-.93.38-1.74.94-2.44,1.66-.7.73-1.25,1.61-1.65,2.66-.4,1.04-.6,2.24-.6,3.58v13.95h-4.83v-26.37h3.88l.57,4.76h.22c.54-.96,1.2-1.83,1.97-2.63.77-.8,1.67-1.43,2.68-1.9,1.01-.47,2.13-.71,3.36-.71Z" fill="#024"/><path d="M323.01,49.23h-4.88V14.25h19.62v4.21h-14.74v11.87h13.83v4.19h-13.83v14.71Z" fill="#024"/><path d="M354.36,22.39c.48,0,1,.03,1.56.08.56.06,1.04.12,1.44.2l-.5,4.47c-.38-.1-.83-.17-1.33-.24-.5-.06-.97-.1-1.4-.1-1.02,0-1.99.19-2.92.57s-1.74.94-2.44,1.66c-.7.73-1.25,1.61-1.65,2.66-.4,1.04-.6,2.24-.6,3.58v13.95h-4.83v-26.37h3.88l.57,4.76h.22c.54-.96,1.2-1.83,1.97-2.63.77-.8,1.67-1.43,2.68-1.9s2.13-.71,3.36-.71Z" fill="#024"/><path d="M370.89,22.41c3.25,0,5.69.72,7.3,2.17s2.42,3.72,2.42,6.83v17.82h-3.45l-.93-3.83h-.19c-.73.96-1.5,1.75-2.3,2.39s-1.72,1.12-2.76,1.44c-1.04.32-2.32.48-3.82.48-1.6,0-3.01-.29-4.26-.86s-2.22-1.44-2.93-2.6c-.71-1.16-1.06-2.63-1.06-4.41,0-2.68,1.03-4.71,3.09-6.1s5.18-2.15,9.35-2.27l4.55-.19v-1.48c0-2.06-.46-3.51-1.38-4.36-.92-.84-2.2-1.27-3.84-1.27-1.36,0-2.66.2-3.9.59-1.24.39-2.44.86-3.59,1.4l-1.53-3.49c1.24-.64,2.66-1.17,4.25-1.6,1.59-.43,3.25-.65,4.99-.65ZM375.84,36.43l-3.68.17c-3.05.11-5.19.62-6.42,1.52s-1.85,2.16-1.85,3.77c0,1.4.42,2.43,1.27,3.09.84.65,1.96.98,3.35.98,2.14,0,3.9-.6,5.28-1.81s2.07-2.99,2.07-5.35v-2.37Z" fill="#024"/><path d="M399.19,22.39c3.05,0,5.39.77,7.02,2.3,1.64,1.53,2.45,3.99,2.45,7.37v17.18h-4.76v-16.53c0-2.11-.46-3.69-1.39-4.75-.92-1.06-2.34-1.59-4.26-1.59-2.73,0-4.64.81-5.73,2.42-1.09,1.61-1.64,3.95-1.64,7.01v13.45h-4.81v-26.37h3.8l.69,3.71h.26c.56-.92,1.27-1.7,2.13-2.32s1.82-1.09,2.88-1.4c1.06-.31,2.17-.47,3.34-.47Z" fill="#024"/><path d="M425.84,49.71c-2.42,0-4.55-.49-6.36-1.46-1.82-.97-3.23-2.46-4.22-4.46-1-2-1.5-4.53-1.5-7.6s.53-5.8,1.6-7.84c1.07-2.03,2.55-3.54,4.44-4.51,1.89-.97,4.06-1.46,6.5-1.46,1.44,0,2.78.14,4.03.43s2.3.65,3.15,1.08l-1.44,3.9c-.89-.35-1.85-.66-2.88-.93-1.03-.27-2.01-.41-2.93-.41-1.69,0-3.09.37-4.2,1.11-1.11.74-1.94,1.83-2.5,3.27s-.84,3.21-.84,5.31.27,3.77.83,5.18c.55,1.41,1.36,2.48,2.44,3.22,1.08.73,2.42,1.1,4.03,1.1,1.42,0,2.7-.16,3.83-.48s2.18-.73,3.13-1.22v4.23c-.93.51-1.95.89-3.06,1.15-1.12.25-2.46.38-4.04.38Z" fill="#024"/><path d="M440.84,12.89c.77,0,1.42.22,1.97.67.55.45.83,1.17.83,2.18s-.28,1.73-.83,2.19c-.55.45-1.21.68-1.97.68s-1.44-.23-1.97-.68c-.53-.46-.8-1.18-.8-2.19s.27-1.73.8-2.18c.53-.45,1.19-.67,1.97-.67ZM443.21,22.86v26.37h-4.81v-26.37h4.81Z" fill="#024"/><path d="M467.76,41.86c0,1.71-.42,3.15-1.26,4.32-.84,1.17-2.05,2.05-3.65,2.64-1.6.59-3.51.88-5.74.88-1.85,0-3.45-.14-4.79-.42-1.34-.28-2.55-.68-3.64-1.21v-4.26c1.16.56,2.51,1.05,4.04,1.48s3.03.65,4.5.65c2.06,0,3.54-.33,4.46-.98.92-.65,1.38-1.54,1.38-2.66,0-.65-.18-1.23-.55-1.74-.37-.5-1.01-1-1.93-1.51-.92-.5-2.23-1.08-3.94-1.73-1.67-.65-3.11-1.31-4.29-1.96-1.19-.65-2.09-1.44-2.71-2.37s-.93-2.12-.93-3.59c0-2.28.91-4.02,2.74-5.23,1.83-1.2,4.24-1.81,7.24-1.81,1.59,0,3.1.16,4.51.48,1.41.32,2.76.77,4.06,1.34l-1.56,3.71c-1.15-.49-2.33-.9-3.54-1.23s-2.45-.49-3.71-.49c-1.64,0-2.9.26-3.77.79s-1.3,1.25-1.3,2.18c0,.72.2,1.32.61,1.79.41.48,1.09.95,2.05,1.4.96.46,2.25.99,3.88,1.62,1.61.61,3,1.24,4.17,1.89,1.17.65,2.08,1.45,2.72,2.39.64.94.96,2.15.96,3.61Z" fill="#024"/><path d="M298.75,42.32c1.28-1.45,2.33-3.1,3.17-4.95.84-1.85,1.51-3.8,2.02-5.84h-4.9c-.38,1.5-.84,2.91-1.38,4.22-.53,1.32-1.22,2.49-2.05,3.53l-8.97-8.71-2.87-2.8c-1.07-1.13-1.9-2.18-2.5-3.13-.6-.96-.9-1.99-.9-3.09,0-1.31.43-2.3,1.29-2.97s1.94-1.01,3.23-1.01,2.24.35,3.03,1.04c.36.32.63.7.83,1.12l4.42-1.57c-.14-.34-.31-.68-.51-.99-.73-1.12-1.74-1.99-3.04-2.58-1.3-.6-2.83-.9-4.61-.9-1.88,0-3.51.31-4.89.93-1.38.62-2.45,1.51-3.22,2.66s-1.15,2.53-1.15,4.14c0,1.13.18,2.17.55,3.12.37.95.87,1.85,1.5,2.7.63.85,1.33,1.71,2.09,2.57-1.53.86-2.85,1.76-3.95,2.69-1.1.93-1.95,2-2.54,3.21-.59,1.2-.89,2.65-.89,4.34,0,2.04.46,3.78,1.39,5.22.92,1.44,2.24,2.53,3.95,3.29,1.71.76,3.73,1.14,6.08,1.14,1.71,0,3.25-.18,4.63-.54,1.38-.36,2.64-.87,3.79-1.52s2.22-1.41,3.21-2.27l3.95,3.85h6.29l-7.06-6.91ZM289.04,44.64c-1.37.61-3,.91-4.88.91-1.98,0-3.57-.52-4.77-1.57-1.2-1.04-1.81-2.44-1.81-4.2,0-1.1.2-2.05.61-2.85.41-.8,1-1.52,1.78-2.17.78-.65,1.71-1.3,2.8-1.95l9.81,9.59c-.99.88-2.17,1.62-3.54,2.22Z" fill="#024"/><path d="M56.17.07C25.28.07.24,25.11.24,56s25.04,55.93,55.93,55.93,55.93-25.04,55.93-55.93S87.06.07,56.17.07Z" fill="#024"/><path d="M56.37,46.04s-.5-5.45,6.26-14.13c0,0-16.86,7.37-6.26,14.13Z" fill="#fff"/><polygon points="74.94 50.74 76.05 48.39 37.59 48.39 38.8 50.74 74.94 50.74" fill="#fff"/><polygon points="73.13 55.45 74.34 53.1 39.41 53.1 40.52 55.45 73.13 55.45" fill="#fff"/><path d="M86.05,57.82H24.67v-1.51h-8.18v1.51h-1.92l2.02,4.74h10.2c5.65,10.7,16.86,18.07,29.78,18.07,8.98,0,17.26-3.53,23.22-9.39,15.14,1.21,18.88-16.96,18.88-16.96l-12.62,3.53ZM82.31,68.92c1.11-1.31,2.12-2.73,3.13-4.24,0,0,1.61-2.52,2.52-4.85l7.47-2.02c-4.44,10.2-11.21,11-13.12,11.1Z" fill="#fff"/><path d="M20.58,41.57c-.42.94-5.22,12.38,0,12.38s.42-11.44,0-12.38Z" fill="#fff"/></svg>